<svg id="Layer_1" data-name="Layer 1" xmlns="http://www.w3.org/2000/svg" viewBox="0 0 688 180"><defs><style>.cls-1{fill:#d64649;}.cls-2{fill:#fff;}</style></defs><title>cz-logo</title><rect class="cls-1" width="180" height="180"/><rect class="cls-2" x="57" y="142" width="66" height="12"/><polygon class="cls-2" points="91.86 127.08 116 106.57 116 95 64 95 64 106 97.65 106 73.07 127.28 83.41 136 102.3 136 91.86 127.08"/><path class="cls-2" d="M123.1,57.67A31.63,31.63,0,0,0,120.56,45a32.14,32.14,0,0,0-6.92-10.19A32.24,32.24,0,0,0,91,25.57h0c-.38,0-.75,0-1.13.05-.7,0-1.41,0-2.1.11a30.76,30.76,0,0,0-9.46,2.39A32.24,32.24,0,0,0,68.13,35a31.09,31.09,0,0,0-3.29,4c-.15.21-.31.4-.44.6-.27.4-.51.82-.76,1.23s-.64,1-.92,1.56c0,.08-.08.16-.12.24-.41.77-.8,1.55-1.16,2.36a30.62,30.62,0,0,0-2.39,9.45c-.1,1.06-.15,2.14-.15,3.23,0,.83.05,1.64.11,2.45A31,31,0,0,0,61.35,70a32.62,32.62,0,0,0,6.78,10.23,31.56,31.56,0,0,0,9,6.4c.43.22.84.44,1.29.65l0,0c.17.07.35.12.53.2V74.93a19.05,19.05,0,0,1-1.7-1.25l-.25-.22A21.56,21.56,0,0,1,73,68.59,22.26,22.26,0,0,1,70.58,63a20.71,20.71,0,0,1-.77-5.32,20.13,20.13,0,0,1,1.64-8A22.13,22.13,0,0,1,76,42.9a21.28,21.28,0,0,1,6.73-4.69,20.1,20.1,0,0,1,7.66-1.69l.66,0a20.55,20.55,0,0,1,2.49.16l.61.09c.7.11,1.38.26,2.07.43l.5.13a20.87,20.87,0,0,1,4.92,2.14,24.07,24.07,0,0,1,6.63,6,22.6,22.6,0,0,1,2.24,3.9,20.59,20.59,0,0,1,.15,16.17l-.06,0a21.5,21.5,0,0,1-1.39,2.85,12.32,12.32,0,0,1-.69,1c-.37.51-.71,1-1.11,1.51s-.88,1-1.36,1.5-.69.7-1,1-.49.43-.73.64c-.39.31-.81.58-1.22.87V87.39a30.53,30.53,0,0,0,3.36-1.63h0c.14-.07.26-.16.4-.23l.55-.31c.15-.08.28-.18.42-.27a30.82,30.82,0,0,0,6.45-5.1,33.15,33.15,0,0,0,3.58-4.52c.1-.15.2-.29.29-.44s.34-.55.5-.83a38.79,38.79,0,0,0,2.09-3.84l-.14-.07a31.69,31.69,0,0,0,1.68-5.07A32.21,32.21,0,0,0,123.1,57.67Z"/><path class="cls-2" d="M247.19,76.49a.83.83,0,0,1,.61.22.65.65,0,0,1,.15.61,40.39,40.39,0,0,1-1.79,7.39,17.94,17.94,0,0,1-3.23,5.75,14.64,14.64,0,0,1-5,3.77,16.84,16.84,0,0,1-7.08,1.37,13.66,13.66,0,0,1-8.39-2.4,16.23,16.23,0,0,1-5-6.21,28.1,28.1,0,0,1-2.42-8.6,75.47,75.47,0,0,1-.62-9.6A82,82,0,0,1,215,58.67a30.73,30.73,0,0,1,2.34-8.8,15.41,15.41,0,0,1,4.83-6.16,13.22,13.22,0,0,1,8.13-2.33A28.19,28.19,0,0,1,236,42a11.91,11.91,0,0,1,5,2.32,14.13,14.13,0,0,1,3.85,5A26.52,26.52,0,0,1,247,57.83c.05.36-.21.64-.76.84-1,.3-2.11.6-3.43.87s-2.44.5-3.35.65A.44.44,0,0,1,239,60a1.21,1.21,0,0,1-.3-.46c-.36-1.27-.71-2.5-1.07-3.69a12,12,0,0,0-1.41-3.16,7.14,7.14,0,0,0-2.2-2.21,6.26,6.26,0,0,0-3.39-.84,5.56,5.56,0,0,0-4.23,1.56,9.86,9.86,0,0,0-2.21,4.12,25.55,25.55,0,0,0-.87,5.75q-.15,3.2-.15,6.47t.19,6.89a31.42,31.42,0,0,0,.95,6.43,12,12,0,0,0,2.28,4.72,5.08,5.08,0,0,0,4.11,1.83,6.8,6.8,0,0,0,3.85-1,8.48,8.48,0,0,0,2.59-2.7,14.74,14.74,0,0,0,1.6-3.73,27.46,27.46,0,0,0,.8-4,.52.52,0,0,1,.26-.42.92.92,0,0,1,.5-.19Z"/><path class="cls-2" d="M251.33,87.22l20.34-36.31H254.33c-.45,0-.67-.25-.67-.75V43.53c0-.5.22-.75.67-.75h26.3s.71-.35.9.15v5.63L261.19,86.92h20.07c.52-.31,1.43.44,1.43.44v6.92a.76.76,0,0,1-.76.77H252.1a.77.77,0,0,1-.77-.77Z"/><path class="cls-2" d="M286.18,42.38a.76.76,0,0,1,.76-.76h28.77c.44,0,.67.28.67.83v7.62c0,.56-.23.84-.67.84H295.47V64.85h16.66a.76.76,0,0,1,.76.76V72.3c0,.45-.24.68-.72.68h-16.7V86.92h20.24c.44,0,.67.26.67.78v6.58c0,.51-.23.77-.69.77H286.94a.76.76,0,0,1-.76-.76Z"/><path class="cls-2" d="M336.52,71l-3.14,4.8q-1.56,2.37-3.06,4.8V94.28c0,.51-.23.77-.67.77H323a.76.76,0,0,1-.76-.76V42.38a.76.76,0,0,1,.76-.76h6.7c.44,0,.67.25.67.76V59.76l-.08,5.94,2.7-5L344.79,42a.7.7,0,0,1,.72-.38h7.87a.8.8,0,0,1,.72.38.66.66,0,0,1,0,.76c-.75,1.17-1.51,2.36-2.31,3.58s-1.66,2.58-2.58,4.08-2,3.18-3.15,5-2.49,4-4,6.44l6.36,15.47L355.21,94a.76.76,0,0,1,0,.72.65.65,0,0,1-.6.35h-7.95a.74.74,0,0,1-.4-.16q-.24-.15-.24-.3Z"/><path class="cls-2" d="M395.44,66.69l.31-7.34c-.31.82-.69,2-1.13,3.48s-.88,2.84-1.29,4q-.87,2.44-1.84,5.31c-.65,1.91-1.29,3.83-1.92,5.74s-1.23,3.77-1.83,5.58-1.15,3.46-1.64,5-.93,2.79-1.29,3.86-.63,1.81-.79,2.22a.67.67,0,0,1-.7.54h-5.75a.66.66,0,0,1-.68-.54l-8.2-27.44-1.51-7.95.3,8.1.23,27.06a.67.67,0,0,1-.75.77h-6.84a.76.76,0,0,1-.77-.77V42.38a.76.76,0,0,1,.76-.76h7.11a.73.73,0,0,1,.78.53l12.66,38.53.86-2.22c.63-1.68,1.34-3.66,2.15-5.92s1.67-4.63,2.58-7.07,1.81-4.91,2.7-7.38,1.72-4.78,2.5-6.92,1.46-4,2-5.62,1-2.76,1.33-3.47a.67.67,0,0,1,.71-.46h7.21a.76.76,0,0,1,.76.76v51.9a.76.76,0,0,1-.76.77h-6.59a.69.69,0,0,1-.78-.77Z"/><path class="cls-2" d="M425.19,42.15a.71.71,0,0,1,.76-.53h5.74a.71.71,0,0,1,.76.53l15.67,51.9a.64.64,0,0,1-.11.69.86.86,0,0,1-.65.31h-6.73a.72.72,0,0,1-.78-.55l-3-9.91H420.65c-.15.47-.34,1.06-.54,1.78s-.44,1.53-.7,2.4-.53,1.81-.81,2.79-.58,2-.89,2.94a.68.68,0,0,1-.7.55h-6.73a.86.86,0,0,1-.65-.31.62.62,0,0,1-.11-.69Zm4.73,19.24a13.29,13.29,0,0,1-.49-2c-.13-.74-.24-1.45-.34-2.13s-.18-1.3-.23-1.83-.08-.93-.08-1.18c0,.15,0,.47-.07,1s-.13,1.07-.23,1.75-.23,1.42-.38,2.21-.33,1.59-.54,2.4l-4.64,14.92h11.65Z"/><path class="cls-2" d="M452.27,42.38a.76.76,0,0,1,.76-.76h27.61c.45,0,.67.28.67.83v7.62c0,.56-.22.84-.67.84H460.4V64.85h16.66a.76.76,0,0,1,.77.76V72.3c0,.45-.25.68-.73.68H460.4V86.92h20.24c.45,0,.67.26.67.78v6.58c0,.51-.22.77-.67.77H453a.76.76,0,0,1-.76-.76Z"/><path class="cls-2" d="M515.39,42.78a.77.77,0,0,1,.77.76v6.61a.77.77,0,0,1-.77.76H505.7V94.28a.76.76,0,0,1-.76.77h-6.61a.76.76,0,0,1-.76-.76V50.91h-12a.76.76,0,0,1-.76-.76V43.54a.76.76,0,0,1,.76-.76Z"/><path class="cls-2" d="M548.28,41.62h6.61a.76.76,0,0,1,.76.76v51.9a.76.76,0,0,1-.77.77h-6.6a.76.76,0,0,1-.76-.77V42.38A.76.76,0,0,1,548.28,41.62Z"/><path class="cls-2" d="M587.78,95a.57.57,0,0,1-.59-.46L576.26,71l-3.93-8.33c.1,1.83.22,3.62.37,5.35.1,1.53.18,3.14.26,4.85s.11,3.25.11,4.63V94.28a.76.76,0,0,1-.76.77H565.7a.76.76,0,0,1-.76-.77V42.38a.76.76,0,0,1,.76-.76h5.93a.58.58,0,0,1,.59.46l12,27a50.94,50.94,0,0,1,2.6,6.07c.59,1.76.94,2.77,1,3,0-.05,0-.56-.15-1.52s-.21-2.15-.34-3.52-.22-2.83-.29-4.36-.11-2.88-.11-4V42.38c0-.51.22-.76.67-.76h6.7a.76.76,0,0,1,.76.76v51.9a.67.67,0,0,1-.75.77Z"/><path class="cls-2" d="M634.28,76.49a.83.83,0,0,1,.61.22.65.65,0,0,1,.15.61,39.59,39.59,0,0,1-1.79,7.39A17.76,17.76,0,0,1,630,90.46a14.64,14.64,0,0,1-5,3.77,16.84,16.84,0,0,1-7.08,1.37,13.66,13.66,0,0,1-8.39-2.4,16.23,16.23,0,0,1-5-6.21,28.1,28.1,0,0,1-2.42-8.6,75.47,75.47,0,0,1-.62-9.6,82,82,0,0,1,.62-10.12,30.73,30.73,0,0,1,2.34-8.8,15.41,15.41,0,0,1,4.83-6.16,13.22,13.22,0,0,1,8.13-2.33,28.11,28.11,0,0,1,5.67.58,11.91,11.91,0,0,1,5,2.32,14.13,14.13,0,0,1,3.85,5,26.26,26.26,0,0,1,2.21,8.56c0,.36-.21.64-.76.84-1,.3-2.11.6-3.43.87s-2.44.5-3.35.65a.45.45,0,0,1-.46-.15,1.21,1.21,0,0,1-.3-.46c-.36-1.27-.71-2.5-1.07-3.69a12,12,0,0,0-1.41-3.16,7.14,7.14,0,0,0-2.2-2.21,6.26,6.26,0,0,0-3.39-.84,5.56,5.56,0,0,0-4.23,1.56,9.86,9.86,0,0,0-2.21,4.12,25.55,25.55,0,0,0-.87,5.75q-.15,3.2-.15,6.47t.19,6.89a31.42,31.42,0,0,0,1,6.43,12.17,12.17,0,0,0,2.28,4.72,5.08,5.08,0,0,0,4.11,1.83,6.8,6.8,0,0,0,3.85-1,8.48,8.48,0,0,0,2.59-2.7,14.74,14.74,0,0,0,1.6-3.73,27.46,27.46,0,0,0,.8-4,.52.52,0,0,1,.26-.42,1,1,0,0,1,.5-.19Z"/><path class="cls-2" d="M643.92,84.26c0-.55.24-.83.71-.83h9a.76.76,0,0,1,.76.76V94.28a.76.76,0,0,1-.76.77h-9c-.47,0-.71-.28-.71-.83Z"/><path class="cls-2" d="M231.43,137.81V110.12h6.26a8,8,0,0,1,4.47,1.31,6,6,0,0,1,2.44,3.42,9.76,9.76,0,0,1,.4,2.94,6.5,6.5,0,0,1-1.49,4.46,4.18,4.18,0,0,1-1.46,1.08,4.83,4.83,0,0,1,2.37,2.1,8.14,8.14,0,0,1,1,2.73,11.32,11.32,0,0,1,.16,1.93,9.3,9.3,0,0,1-1,4.46,6.42,6.42,0,0,1-5.36,3.26Zm4.51-16.38h1.75a2.55,2.55,0,0,0,2.61-1.9,5.16,5.16,0,0,0,.25-1.74,3.66,3.66,0,0,0-.84-2.61,2.65,2.65,0,0,0-2-.82h-1.75Zm0,12.25h1.75a3,3,0,0,0,2.95-2.18,4.85,4.85,0,0,0,.28-1.72,5.22,5.22,0,0,0-.88-3.38,2.86,2.86,0,0,0-2.35-1h-1.75Z"/><path class="cls-2" d="M255.73,138.12A6.37,6.37,0,0,1,251,136.2a6.31,6.31,0,0,1-1.93-4.66V110.15h4.1V131.5a2.3,2.3,0,0,0,.7,1.69,2.37,2.37,0,0,0,1.71.69A2.37,2.37,0,0,0,258,131.5V110.15h4.36v21.39a6.26,6.26,0,0,1-1.95,4.68A6.46,6.46,0,0,1,255.73,138.12Z"/><path class="cls-2" d="M270.27,137.81h-4.18V110.15h4.18Z"/><path class="cls-2" d="M285.41,137.81H274V110.15h4.18v23.51h7.22Z"/><path class="cls-2" d="M301.43,131.19a6.39,6.39,0,0,1-1.93,4.68,6.27,6.27,0,0,1-4.64,1.94h-6.58V110.12h6.58a6.25,6.25,0,0,1,4.65,1.95,6.38,6.38,0,0,1,1.92,4.65Zm-9,2.49H295a2.23,2.23,0,0,0,1.68-.71,2.36,2.36,0,0,0,.69-1.69V116.79a2.36,2.36,0,0,0-.7-1.7,2.28,2.28,0,0,0-1.67-.71h-2.52Z"/><path class="cls-2" d="M376,131.4l-1,6.43h-4.15l4.5-28h5.48l4.43,28h-4.19l-.93-6.43Zm2.1-15.14-1.48,11h3Z"/><path class="cls-2" d="M393.13,109.83l5.29,18.82V109.83h4v28h-4.29l-5.48-17.93v17.93h-4v-28Z"/><path class="cls-2" d="M410.86,131.4l-1,6.43h-4.15l4.49-28h5.49l4.43,28H416L415,131.4ZM413,116.26l-1.47,11h2.95Z"/><path class="cls-2" d="M434.36,137.83H423.5v-28h4v23.78h6.87Z"/><path class="cls-2" d="M437.5,126.11l-5.33-16.28h4.38l3,10,2.93-10h4.41l-5.36,16.28v11.72h-4Z"/><path class="cls-2" d="M461.23,109.85v4.25l-7.34,19.53h7.34v4.2H449.59v-4.22L457,114.07l-7.36,0v-4.25Z"/><path class="cls-2" d="M464.55,137.83v-28h11.34v4.24h-7.36v7.64h5.38V126h-5.38v7.64h7.36v4.24Z"/><path class="cls-2" d="M551.26,110.47a6,6,0,0,1,4.64,1.9,6.72,6.72,0,0,1,1.6,4.63v4a6.49,6.49,0,0,1-1.82,4.62,5.88,5.88,0,0,1-4.42,1.92H549v10.31h-4V110.47Zm2.38,6.59a2.4,2.4,0,0,0-.62-1.72,2.18,2.18,0,0,0-1.66-.66H549v8.75h2.4a2.16,2.16,0,0,0,1.62-.7,2.34,2.34,0,0,0,.66-1.68Z"/><path class="cls-2" d="M567,110.47a6,6,0,0,1,4.89,1.9,7,7,0,0,1,1.37,4.63v4a6.5,6.5,0,0,1-2.13,4.91l3,11.94h-4.32l-2.41-10.31h-2.66v10.31h-4V110.47Zm2.38,6.59c0-1.58-.76-2.38-2.28-2.38h-2.4v8.75h2.4a2.14,2.14,0,0,0,1.62-.7,2.34,2.34,0,0,0,.66-1.68Z"/><path class="cls-2" d="M577.49,137.82V110.45h11.35v4.14h-7.37v7.47h5.39v4.15h-5.39v7.46h7.37v4.15Z"/><path class="cls-2" d="M604.12,131.27a6.46,6.46,0,0,1-1.84,4.63,5.9,5.9,0,0,1-4.43,1.92h-6.27V110.45h6.27a5.91,5.91,0,0,1,4.44,1.92,6.43,6.43,0,0,1,1.83,4.6Zm-8.55,2.46H598a2.1,2.1,0,0,0,1.6-.7,2.37,2.37,0,0,0,.65-1.67V117a2.34,2.34,0,0,0-.66-1.68,2.1,2.1,0,0,0-1.59-.7h-2.41Z"/><path class="cls-2" d="M611.61,137.82h-4V110.47h4Z"/><path class="cls-2" d="M621.46,138.16a6,6,0,0,1-4.48-1.9,6.43,6.43,0,0,1-1.85-4.62V116.71a6.41,6.41,0,0,1,1.86-4.64,6.19,6.19,0,0,1,9,0,6.5,6.5,0,0,1,1.83,4.63v3.12h-4.13v-3.21a2.35,2.35,0,0,0-.68-1.68,2.25,2.25,0,0,0-3.24,0,2.37,2.37,0,0,0-.66,1.68v15a2.33,2.33,0,0,0,.66,1.67,2.27,2.27,0,0,0,3.24,0,2.31,2.31,0,0,0,.68-1.67v-3.78h4.13v3.82a6.41,6.41,0,0,1-1.85,4.63A6,6,0,0,1,621.46,138.16Z"/><path class="cls-2" d="M634.76,114.62h-4.24v-4.15H643v4.15h-4.22v23.2h-4Z"/><rect class="cls-2" x="333.89" y="110.21" width="4.55" height="28"/><rect class="cls-2" x="507.89" y="110.21" width="4.55" height="28"/></svg>