<?xml version="1.0" encoding="utf-8"?>
<!-- Generator: Adobe Illustrator 22.0.1, SVG Export Plug-In . SVG Version: 6.00 Build 0)  -->
<svg version="1.1" id="Layer_1" xmlns="http://www.w3.org/2000/svg" xmlns:xlink="http://www.w3.org/1999/xlink" x="0px" y="0px"
	 viewBox="0 0 688 180" style="enable-background:new 0 0 688 180;" xml:space="preserve">
<style type="text/css">
	.st0{fill:#D64649;}
	.st1{fill:#FFFFFF;}
</style>
<rect class="st0" width="180" height="180"/>
<g>
	<rect x="60" y="138" class="st1" width="60" height="11"/>
	<polygon class="st1" points="91.7,124 114,105.5 114,95 66,95 66,105 97.1,105 74.4,124.2 83.9,132 101.4,132 	"/>
	<path class="st1" d="M120.4,60.4c0-4.2-0.8-8-2.3-11.6c-1.6-3.6-3.7-6.7-6.3-9.3c-2.7-2.6-5.8-4.7-9.4-6.2C98.8,31.7,95,31,91,31h0
		c-0.3,0-0.7,0-1,0c-0.6,0-1.3,0-1.9,0.1c-3.1,0.3-5.9,1-8.7,2.2c-3.6,1.6-6.7,3.7-9.3,6.3c-1.1,1.1-2.1,2.4-3,3.6
		c-0.1,0.2-0.3,0.4-0.4,0.5c-0.2,0.4-0.5,0.8-0.7,1.1c-0.3,0.5-0.6,0.9-0.8,1.4c0,0.1-0.1,0.1-0.1,0.2c-0.4,0.7-0.7,1.4-1.1,2.2
		c-1.2,2.7-1.9,5.6-2.2,8.7c-0.1,1-0.1,2-0.1,3c0,0.8,0.1,1.5,0.1,2.2c0.2,3.2,0.9,6.2,2.1,9.1c1.5,3.6,3.6,6.7,6.2,9.4
		c2.4,2.4,5.1,4.4,8.3,5.9c0.4,0.2,0.8,0.4,1.2,0.6l0,0c0.2,0.1,0.3,0.1,0.5,0.2v-1.2V76.3v-0.1c-0.5-0.4-1.1-0.7-1.6-1.1
		c-0.1-0.1-0.2-0.1-0.2-0.2c-1.5-1.4-2.7-2.8-3.7-4.5c-1-1.7-1.7-3.4-2.2-5.1c-0.5-1.8-0.7-3.4-0.7-4.9c0-2.6,0.5-5,1.5-7.3
		c1-2.3,2.4-4.4,4.1-6.2c1.8-1.8,3.8-3.2,6.2-4.3c2.2-1,4.5-1.5,7-1.6c0.2,0,0.4,0,0.6,0c0.8,0,1.5,0.1,2.3,0.2
		c0.2,0,0.4,0.1,0.6,0.1c0.6,0.1,1.3,0.2,1.9,0.4c0.2,0,0.3,0.1,0.5,0.1c1.6,0.5,3.1,1.1,4.5,2c2.2,1.3,4.2,3.2,6.1,5.5
		c0.8,1.1,1.5,2.3,2.1,3.6c1.1,2.4,1.6,4.9,1.6,7.6c0,2.5-0.5,4.9-1.5,7.2l0,0c-0.4,0.9-0.8,1.8-1.3,2.6c-0.2,0.3-0.4,0.6-0.6,0.9
		c-0.3,0.5-0.7,0.9-1,1.4c-0.4,0.5-0.8,0.9-1.2,1.4c-0.3,0.3-0.6,0.6-1,0.9c-0.2,0.2-0.4,0.4-0.7,0.6c-0.4,0.3-0.7,0.5-1.1,0.8v0.2
		v5.4v5.9c1-0.4,2.1-0.9,3.1-1.5c0,0,0,0,0,0c0.1-0.1,0.2-0.1,0.4-0.2c0.2-0.1,0.3-0.2,0.5-0.3c0.1-0.1,0.3-0.2,0.4-0.3
		c2.3-1.4,4.3-2.9,5.9-4.7c1.3-1.3,2.3-2.7,3.3-4.2c0.1-0.1,0.2-0.3,0.3-0.4c0.2-0.2,0.3-0.5,0.5-0.8c0.7-1.1,1.3-2.3,1.9-3.5
		l-0.1-0.1c0.6-1.5,1.2-3.1,1.5-4.7C120.1,64.8,120.4,62.6,120.4,60.4z"/>
</g>
<g>
	<path class="st1" d="M228.7,143.2v-29.8h6.7c1.8,0,3.4,0.5,4.8,1.4c1.2,0.8,2.1,2,2.6,3.7c0.3,0.9,0.4,1.9,0.4,3.2
		c0,2-0.5,3.6-1.6,4.8c-0.4,0.5-1,0.9-1.6,1.2c1,0.4,1.8,1.1,2.5,2.3c0.5,0.8,0.8,1.7,1,2.9c0.1,0.6,0.2,1.3,0.2,2.1
		c0,1.9-0.4,3.5-1.1,4.8c-0.6,1-1.3,1.9-2.4,2.5c-1.1,0.7-2.3,1-3.4,1H228.7z M233.6,125.5h1.9c1.4,0,2.3-0.7,2.8-2
		c0.2-0.5,0.3-1.1,0.3-1.9c0-1.2-0.3-2.2-0.9-2.8c-0.6-0.6-1.3-0.9-2.2-0.9h-1.9V125.5z M233.6,138.7h1.9c1.5,0,2.6-0.8,3.2-2.4
		c0.2-0.5,0.3-1.2,0.3-1.9c0-1.7-0.3-2.9-1-3.6c-0.6-0.7-1.4-1-2.5-1h-1.9V138.7z"/>
	<path class="st1" d="M254.9,143.5c-2,0-3.7-0.7-5.1-2.1c-1.4-1.4-2.1-3.1-2.1-5v-23h4.4v23c0,0.7,0.3,1.3,0.8,1.8
		c0.5,0.5,1.1,0.7,1.8,0.7c0.7,0,1.3-0.2,1.8-0.7c0.5-0.5,0.8-1.1,0.8-1.8v-23h4.7v23c0,2-0.7,3.7-2.1,5
		C258.5,142.8,256.9,143.5,254.9,143.5z"/>
	<path class="st1" d="M270.5,143.2H266v-29.8h4.5V143.2z"/>
	<path class="st1" d="M286.8,143.2h-12.3v-29.8h4.5v25.3h7.8V143.2z"/>
	<path class="st1" d="M304.1,136.1c0,2-0.7,3.6-2.1,5c-1.4,1.4-3,2.1-5,2.1h-7.1v-29.8h7.1c2,0,3.6,0.7,5,2.1s2.1,3.1,2.1,5V136.1z
		 M294.4,138.7h2.7c0.7,0,1.3-0.3,1.8-0.8c0.5-0.5,0.7-1.1,0.7-1.8v-15.6c0-0.7-0.3-1.3-0.8-1.8c-0.5-0.5-1.1-0.8-1.8-0.8h-2.7
		V138.7z"/>
</g>
<g>
	<path class="st1" d="M392,136.3l-1,6.9h-4.5l4.8-30.1h5.9l4.8,30.1h-4.5l-1-6.9H392z M394.3,120l-1.6,11.9h3.2L394.3,120z"/>
	<path class="st1" d="M410.4,113.1l5.7,20.3v-20.3h4.3v30.1h-4.6l-5.9-19.3v19.3h-4.3v-30.1H410.4z"/>
	<path class="st1" d="M429.5,136.3l-1,6.9H424l4.8-30.1h5.9l4.8,30.1H435l-1-6.9H429.5z M431.8,120l-1.6,11.9h3.2L431.8,120z"/>
	<path class="st1" d="M454.8,143.2h-11.7v-30.1h4.3v25.6h7.4V143.2z"/>
	<path class="st1" d="M458.2,130.6l-5.7-17.5h4.7l3.2,10.8l3.2-10.8h4.7l-5.8,17.5v12.6h-4.3V130.6z"/>
	<path class="st1" d="M483.7,113.1v4.6l-7.9,21h7.9v4.5h-12.5v-4.5l7.9-21l-7.9,0v-4.6H483.7z"/>
	<path class="st1" d="M487.3,143.2v-30.1h12.2v4.6h-7.9v8.2h5.8v4.6h-5.8v8.2h7.9v4.6H487.3z"/>
</g>
<g>
	<path class="st1" d="M589,113.7c2.1,0,3.8,0.7,5,2c1.2,1.3,1.7,3,1.7,5v4.3c0,1.9-0.7,3.6-2,5s-2.9,2.1-4.8,2.1h-2.5v11.1h-4.3
		v-29.4H589z M591.6,120.8c0-0.8-0.2-1.4-0.7-1.9c-0.4-0.5-1-0.7-1.8-0.7h-2.6v9.4h2.6c0.7,0,1.3-0.2,1.7-0.8
		c0.5-0.5,0.7-1.1,0.7-1.8V120.8z"/>
	<path class="st1" d="M605.9,113.7c2.4,0,4.1,0.7,5.3,2c1,1.2,1.5,2.8,1.5,5v4.3c0,2.1-0.8,3.8-2.3,5.3l3.2,12.8h-4.6l-2.6-11.1
		c-0.1,0-0.3,0-0.4,0h-2.5v11.1h-4.3v-29.4H605.9z M608.5,120.8c0-1.7-0.8-2.6-2.5-2.6h-2.6v9.4h2.6c0.7,0,1.3-0.2,1.7-0.8
		c0.5-0.5,0.7-1.1,0.7-1.8V120.8z"/>
	<path class="st1" d="M617.2,143.2v-29.5h12.2v4.5h-7.9v8h5.8v4.5h-5.8v8h7.9v4.5H617.2z"/>
	<path class="st1" d="M645.9,136.1c0,1.9-0.7,3.6-2,5s-2.9,2.1-4.8,2.1h-6.7v-29.5h6.7c1.9,0,3.5,0.7,4.8,2.1s2,3,2,5V136.1z
		 M636.7,138.8h2.6c0.7,0,1.3-0.3,1.7-0.8c0.5-0.5,0.7-1.1,0.7-1.8v-15.4c0-0.7-0.2-1.3-0.7-1.8c-0.5-0.5-1-0.8-1.7-0.8h-2.6V138.8z
		"/>
	<path class="st1" d="M654,143.2h-4.3v-29.4h4.3V143.2z"/>
	<path class="st1" d="M664.6,143.6c-1.9,0-3.5-0.7-4.8-2.1c-1.3-1.4-2-3-2-5v-16.1c0-2,0.7-3.6,2-5c1.3-1.4,2.9-2.1,4.8-2.1
		c1.9,0,3.5,0.7,4.8,2.1c1.3,1.4,2,3,2,5v3.4h-4.5v-3.5c0-0.7-0.2-1.3-0.7-1.8c-0.5-0.5-1.1-0.8-1.8-0.8c-0.7,0-1.3,0.3-1.7,0.8
		s-0.7,1.1-0.7,1.8v16.1c0,0.7,0.2,1.3,0.7,1.8s1.1,0.7,1.7,0.7c0.7,0,1.3-0.2,1.8-0.7c0.5-0.5,0.7-1.1,0.7-1.8v-4.1h4.5v4.1
		c0,2-0.7,3.6-2,5C668,142.9,666.4,143.6,664.6,143.6z"/>
	<path class="st1" d="M678.9,118.2h-4.6v-4.5h13.4v4.5h-4.5v25h-4.3V118.2z"/>
</g>
<rect x="340.1" y="113.5" class="st1" width="4.9" height="30.1"/>
<rect x="541.1" y="113.5" class="st1" width="4.9" height="30.1"/>
<g>
	<path class="st1" d="M262,79.2c0.3,0,0.5,0.1,0.6,0.2c0.2,0.2,0.2,0.4,0.2,0.6c-0.4,2.8-1,5.4-1.9,7.8c-0.8,2.3-2,4.4-3.4,6
		c-1.4,1.7-3.2,3-5.3,4c-2.1,1-4.5,1.4-7.4,1.4c-3.6,0-6.5-0.8-8.8-2.5c-2.2-1.7-4-3.9-5.3-6.5c-1.3-2.7-2.1-5.7-2.5-9
		c-0.4-3.4-0.6-6.7-0.6-10.1c0-3.6,0.2-7.2,0.6-10.6c0.4-3.5,1.2-6.6,2.5-9.2c1.2-2.7,2.9-4.9,5.1-6.5c2.2-1.6,5-2.4,8.5-2.4
		c2,0,4,0.2,5.9,0.6c1.9,0.4,3.7,1.2,5.3,2.4c1.6,1.2,2.9,3,4,5.2c1.1,2.3,1.9,5.3,2.3,9c0.1,0.4-0.2,0.7-0.8,0.9
		c-1,0.3-2.2,0.6-3.6,0.9c-1.4,0.3-2.5,0.5-3.5,0.7c-0.2,0.1-0.3,0-0.5-0.2c-0.2-0.2-0.3-0.3-0.3-0.5c-0.4-1.3-0.7-2.6-1.1-3.9
		c-0.4-1.3-0.9-2.4-1.5-3.3c-0.6-1-1.4-1.7-2.3-2.3c-0.9-0.6-2.1-0.9-3.5-0.9c-1.9,0-3.4,0.5-4.4,1.6c-1,1.1-1.8,2.5-2.3,4.3
		c-0.5,1.8-0.8,3.8-0.9,6c-0.1,2.2-0.2,4.5-0.2,6.8c0,2.3,0.1,4.8,0.2,7.2c0.1,2.5,0.5,4.7,1,6.8c0.5,2,1.3,3.7,2.4,5
		c1.1,1.3,2.5,1.9,4.3,1.9c1.6,0,2.9-0.4,4-1.1s2-1.7,2.7-2.8c0.7-1.2,1.3-2.5,1.7-3.9c0.4-1.4,0.7-2.9,0.8-4.2
		c0-0.2,0.1-0.3,0.3-0.4c0.2-0.1,0.4-0.2,0.5-0.2L262,79.2z"/>
	<path class="st1" d="M266,90.7L286.8,52h-18c-0.5,0-0.7-0.3-0.7-0.8v-7.3c0-0.6,0.2-0.8,0.7-0.8h28.3c0,0,0.7,0.1,0.9,0.6v6
		L277.5,90h20.2c0.5,0.2,0.3,1,0.3,1v7.2c0,0.4-0.4,0.8-0.8,0.8h-30.4c-0.4,0-0.8-0.4-0.8-0.8V90.7z"/>
	<path class="st1" d="M303,43.8c0-0.4,0.4-0.8,0.8-0.8h29.5c0.5,0,0.7,0.3,0.7,0.8v7.4c0,0.5-0.2,0.8-0.7,0.8H312v15h18.2
		c0.4,0,0.8,0.4,0.8,0.8v7.5c0,0.5-0.3,0.8-0.8,0.8H312v14h21.3c0.5,0,0.7,0.3,0.7,0.8v7.4c0,0.5-0.2,0.8-0.7,0.8h-29.5
		c-0.4,0-0.8-0.4-0.8-0.8V43.8z"/>
	<path class="st1" d="M355.2,73.8c-1.1,1.7-2.1,3.4-3.1,5c-1,1.7-2.1,3.3-3.1,5v14.3c0,0.5-0.2,0.8-0.7,0.8h-7.5
		c-0.4,0-0.8-0.4-0.8-0.8V43.8c0-0.4,0.4-0.8,0.8-0.8h7.5c0.5,0,0.7,0.3,0.7,0.8V62l-0.1,6.2l2.7-5.3l11.8-19.6
		c0.1-0.3,0.3-0.4,0.7-0.4h7.9c0.3,0,0.6,0.1,0.7,0.4s0.2,0.5,0,0.8c-0.7,1.2-1.5,2.5-2.3,3.8c-0.8,1.3-1.7,2.7-2.6,4.3
		c-0.9,1.6-2,3.3-3.1,5.3c-1.2,1.9-2.5,4.2-4,6.8l6.4,16.2l6.8,17.4c0.1,0.3,0.1,0.5,0,0.8c-0.1,0.2-0.3,0.4-0.6,0.4h-7.9
		c-0.1,0-0.2-0.1-0.4-0.2c-0.2-0.1-0.2-0.2-0.2-0.3L355.2,73.8z"/>
	<path class="st1" d="M417.1,69.3l0.3-7.7c-0.3,0.9-0.7,2.1-1.1,3.6c-0.4,1.6-0.9,3-1.3,4.2c-0.6,1.7-1.2,3.6-1.8,5.6
		c-0.6,2-1.3,4-1.9,6c-0.6,2-1.2,4-1.8,5.8c-0.6,1.9-1.1,3.6-1.6,5.2c-0.5,1.6-0.9,2.9-1.3,4c-0.4,1.1-0.6,1.9-0.8,2.3
		c-0.1,0.4-0.3,0.6-0.7,0.6h-6c-0.4,0-0.6-0.2-0.8-0.6l-9.1-28.8l-1.7-8.3l0.3,8.5l0.3,28.4c0,0.5-0.3,0.8-0.8,0.8h-7.6
		c-0.4,0-0.8-0.4-0.8-0.8V43.8c0-0.4,0.4-0.8,0.8-0.8h9.5c0.4,0,0.7,0.2,0.8,0.6l12.5,40.4l0.8-2.3c0.6-1.8,1.3-3.8,2.1-6.2
		c0.8-2.4,1.6-4.8,2.5-7.4c0.9-2.6,1.8-5.1,2.7-7.7c0.9-2.6,1.7-5,2.5-7.3c0.8-2.2,1.4-4.2,2-5.9c0.6-1.7,1-2.9,1.3-3.6
		c0.1-0.3,0.3-0.5,0.7-0.5h7c0.4,0,0.8,0.4,0.8,0.8v54.4c0,0.4-0.4,0.8-0.8,0.8h-6.4c-0.5,0-0.8-0.3-0.8-0.8L417.1,69.3z"/>
	<path class="st1" d="M448.3,43.6c0.1-0.4,0.4-0.6,0.8-0.6h6c0.4,0,0.7,0.2,0.8,0.6L472.2,98c0.1,0.3,0.1,0.5-0.1,0.7
		c-0.2,0.2-0.4,0.3-0.7,0.3h-7c-0.4,0-0.7-0.2-0.8-0.6L460.5,88h-16.9c-0.2,0.5-0.4,1.1-0.6,1.9c-0.2,0.8-0.5,1.6-0.7,2.5
		c-0.3,0.9-0.6,1.9-0.9,2.9c-0.3,1-0.6,2.1-0.9,3.1c-0.1,0.4-0.4,0.6-0.7,0.6h-7c-0.3,0-0.5-0.1-0.7-0.3s-0.2-0.5-0.1-0.7
		L448.3,43.6z M453.2,63.1c-0.2-0.6-0.4-1.3-0.5-2.1c-0.1-0.8-0.3-1.5-0.4-2.2c-0.1-0.7-0.2-1.4-0.2-1.9c-0.1-0.6-0.1-1-0.1-1.2
		c0,0.2,0,0.5-0.1,1c-0.1,0.5-0.1,1.1-0.2,1.8c-0.1,0.7-0.2,1.5-0.4,2.3c-0.2,0.8-0.3,1.7-0.6,2.5L445.9,79h12.2L453.2,63.1z"/>
	<path class="st1" d="M476,43.8c0-0.4,0.4-0.8,0.8-0.8h29.5c0.5,0,0.7,0.3,0.7,0.8v7.4c0,0.5-0.2,0.8-0.7,0.8H485v15h18.2
		c0.4,0,0.8,0.4,0.8,0.8v7.5c0,0.5-0.3,0.8-0.8,0.8H485v14h21.3c0.5,0,0.7,0.3,0.7,0.8v7.4c0,0.5-0.2,0.8-0.7,0.8h-29.5
		c-0.4,0-0.8-0.4-0.8-0.8V43.8z"/>
	<path class="st1" d="M543.2,43c0.4,0,0.8,0.4,0.8,0.8v7.4c0,0.4-0.4,0.8-0.8,0.8H532v46.2c0,0.4-0.4,0.8-0.8,0.8h-7.4
		c-0.4,0-0.8-0.4-0.8-0.8V52h-11.2c-0.4,0-0.8-0.4-0.8-0.8v-7.4c0-0.4,0.4-0.8,0.8-0.8H543.2z"/>
	<path class="st1" d="M577.8,43h7.4c0.4,0,0.8,0.4,0.8,0.8v54.4c0,0.4-0.4,0.8-0.8,0.8h-7.4c-0.4,0-0.8-0.4-0.8-0.8V43.8
		C577,43.4,577.4,43,577.8,43z"/>
	<path class="st1" d="M618,98.9c-0.3,0-0.5-0.2-0.6-0.5l-11.9-24.7l-4.3-8.7c0.1,1.9,0.2,3.8,0.4,5.6c0.1,1.6,0.2,3.3,0.3,5.1
		c0.1,1.8,0.1,3.4,0.1,4.8v17.6c0,0.4-0.4,0.8-0.8,0.8h-6.4c-0.4,0-0.8-0.4-0.8-0.8V43.8c0-0.4,0.4-0.8,0.8-0.8h6.5
		c0.3,0,0.5,0.2,0.6,0.5L615,71.8c1.2,2.4,2.2,4.5,2.8,6.4c0.6,1.8,1,2.9,1.1,3.2c0-0.1-0.1-0.6-0.2-1.6c-0.1-1-0.2-2.2-0.4-3.7
		c-0.1-1.4-0.2-3-0.3-4.6c-0.1-1.6-0.1-3-0.1-4.2V43.8c0-0.5,0.2-0.8,0.7-0.8h6.5c0.4,0,0.8,0.4,0.8,0.8v54.4c0,0.5-0.3,0.8-0.8,0.8
		L618,98.9z"/>
	<path class="st1" d="M667,79.2c0.3,0,0.5,0.1,0.6,0.2c0.2,0.2,0.2,0.4,0.2,0.6c-0.4,2.8-1,5.4-1.9,7.8c-0.8,2.3-2,4.4-3.4,6
		c-1.4,1.7-3.2,3-5.3,4c-2.1,1-4.5,1.4-7.4,1.4c-3.6,0-6.5-0.8-8.8-2.5c-2.2-1.7-4-3.9-5.3-6.5c-1.3-2.7-2.1-5.7-2.5-9
		c-0.4-3.4-0.6-6.7-0.6-10.1c0-3.6,0.2-7.2,0.6-10.6c0.4-3.5,1.2-6.6,2.5-9.2c1.2-2.7,2.9-4.9,5.1-6.5c2.2-1.6,5-2.4,8.5-2.4
		c2,0,4,0.2,5.9,0.6c1.9,0.4,3.7,1.2,5.3,2.4c1.6,1.2,2.9,3,4,5.2c1.1,2.3,1.9,5.3,2.3,9c0.1,0.4-0.2,0.7-0.8,0.9
		c-1,0.3-2.2,0.6-3.6,0.9c-1.4,0.3-2.5,0.5-3.5,0.7c-0.2,0.1-0.3,0-0.5-0.2c-0.2-0.2-0.3-0.3-0.3-0.5c-0.4-1.3-0.7-2.6-1.1-3.9
		c-0.4-1.3-0.9-2.4-1.5-3.3c-0.6-1-1.4-1.7-2.3-2.3c-0.9-0.6-2.1-0.9-3.5-0.9c-1.9,0-3.4,0.5-4.4,1.6c-1,1.1-1.8,2.5-2.3,4.3
		c-0.5,1.8-0.8,3.8-0.9,6c-0.1,2.2-0.2,4.5-0.2,6.8c0,2.3,0.1,4.8,0.2,7.2c0.1,2.5,0.5,4.7,1,6.8c0.5,2,1.3,3.7,2.4,5
		c1.1,1.3,2.5,1.9,4.3,1.9c1.6,0,2.9-0.4,4-1.1s2-1.7,2.7-2.8c0.7-1.2,1.3-2.5,1.7-3.9s0.7-2.9,0.8-4.2c0-0.2,0.1-0.3,0.3-0.4
		c0.2-0.1,0.4-0.2,0.5-0.2L667,79.2z"/>
	<path class="st1" d="M677,88.8c0-0.5,0.3-0.8,0.8-0.8h9.5c0.4,0,0.8,0.4,0.8,0.8v9.4c0,0.4-0.4,0.8-0.8,0.8h-9.4
		c-0.5,0-0.8-0.3-0.8-0.8V88.8z"/>
</g>
</svg>
